<mxfile host="app.diagrams.net" modified="2024-06-27T19:07:31.904Z" agent="Mozilla/5.0 (Windows NT 10.0; Win64; x64) AppleWebKit/537.36 (KHTML, like Gecko) Chrome/126.0.0.0 Safari/537.36" version="24.6.4" etag="ym-v0j8UwjXCMlJYKLgN" type="github">
  <diagram name="Page-1" id="zGj7eKYWPeH6dSnfWy3O">
    <mxGraphModel>
      <root>
        <mxCell id="0" />
        <mxCell id="1" parent="0" />
      </root>
    </mxGraphModel>
  </diagram>
</mxfile>
